# File created by Blade
# Date/Time:  Tue Apr 07 21:12:38 2015
# Frame Rate: 120.000 fps
#------------------------------------------------------
:FULLY-SPECIFIED
:DEGREES
1958
root 0.280314 33.340154 5.833667 734.597820 3.483875 -717.953166
Spine -12.911235 -9.701004 0.377249
Head 6.721090 -0.914888 0.928294
LeftShoulder 161.546881 143.817558 201.457872
LeftArm 55.206339 -55.320160 -53.556248
LeftForeArm 12.303013 -0.000000 -0.635972
LeftHand 6.582407 -0.000000 8.446736
LeftHandThumb1 -26.253704 0.000000 33.147579
RightShoulder -7.899261 3.984841 -30.823960
RightArm 10.159813 12.817317 43.339805
RightForeArm -17.517638 -0.000000 5.065445
RightHand 7.393973 -0.000000 -5.942060
RightHandThumb1 -24.326973 -0.000000 -32.862282
LeftUpLeg -10.081272 -5.689942 -0.411603
LeftLeg 1.332622 -0.000000 -0.000000
LeftFoot -0.722013 4.351433 -16.470102
LeftToeBase -14.450625 -0.000000 0.000000
RightUpLeg -7.925551 -1.590607 -2.313696
RightLeg 0.629277 -0.000000 -0.000000
RightFoot -4.407497 -9.881394 13.793659
RightToeBase -10.971819 -0.000000 0.000000
1959
root 0.240849 33.250153 5.783828 734.607591 3.971182 -718.112066
Spine -12.816792 -9.831805 0.546299
Head 6.148077 -0.973759 1.042719
LeftShoulder 161.353752 143.929277 201.406700
LeftArm 54.921503 -55.714921 -53.258359
LeftForeArm 12.519606 -0.000000 -0.785505
LeftHand 6.869017 0.000000 8.699813
LeftHandThumb1 -26.253704 0.000000 33.147579
RightShoulder -8.125802 4.304938 -30.930750
RightArm 10.086138 13.195600 43.002035
RightForeArm -17.789373 -0.000000 4.873255
RightHand 6.790230 -0.000000 -5.588387
RightHandThumb1 -24.326973 -0.000000 -32.862282
LeftUpLeg -10.034166 -6.060702 -0.030114
LeftLeg 1.091672 -0.000000 -0.000000
LeftFoot -1.566550 4.060714 -16.567243
LeftToeBase -13.867570 -0.000000 0.000000
RightUpLeg -7.829163 -1.491908 -2.020074
RightLeg 0.499632 -0.000000 -0.000000
RightFoot -5.413286 -10.133850 13.477634
RightToeBase -10.318022 -0.000000 0.000000
1960
root 0.197037 33.165271 5.736223 734.577625 4.522892 -718.327600
Spine -12.692631 -10.051819 0.815860
Head 5.605290 -1.005632 1.076177
LeftShoulder 161.049482 143.854119 201.226405
LeftArm 55.219374 -56.373264 -53.656679
LeftForeArm 13.014249 -0.000000 -0.877335
LeftHand 6.868862 -0.000000 8.491653
LeftHandThumb1 -26.253704 0.000000 33.147579
RightShoulder -8.288877 4.532278 -31.026036
RightArm 10.123437 13.571953 42.654133
RightForeArm -18.043460 -0.000000 4.537240
RightHand 6.297286 -0.000000 -5.141979
RightHandThumb1 -24.326973 -0.000000 -32.862282
LeftUpLeg -9.985530 -6.350179 0.400995
LeftLeg 0.883678 -0.000000 -0.000000
LeftFoot -2.412886 3.679169 -16.698804
LeftToeBase -13.188747 -0.000000 0.000000
RightUpLeg -7.687303 -1.419867 -1.649038
RightLeg 0.333060 -0.000000 -0.000000
RightFoot -6.259090 -10.459407 13.121059
RightToeBase -10.004235 -0.000000 0.000000
1961
root 0.152881 33.090223 5.693763 734.544167 5.166688 -718.597715
Spine -12.581436 -10.328489 1.171863
Head 5.044818 -1.098507 1.102454
LeftShoulder 160.735175 143.782494 200.988998
LeftArm 55.351786 -56.823142 -53.769522
LeftForeArm 13.060138 0.000000 -1.003733
LeftHand 6.485060 -0.000000 8.771457
LeftHandThumb1 -26.253704 0.000000 33.147579
RightShoulder -8.452319 4.693678 -31.098772
RightArm 10.126048 13.753174 42.251445
RightForeArm -18.162320 -0.000000 4.254488
RightHand 5.757656 -0.000000 -4.575027
RightHandThumb1 -24.326973 -0.000000 -32.862282
LeftUpLeg -9.942375 -6.713121 0.885119
LeftLeg 0.651313 -0.000000 -0.000000
LeftFoot -3.188920 3.410812 -16.768808
LeftToeBase -12.604025 -0.000000 0.000000
RightUpLeg -7.432559 -1.210450 -1.235590
RightLeg -0.063815 -0.000000 0.000000
RightFoot -6.953163 -11.019446 12.944516
RightToeBase -9.502546 -0.000000 0.000000
1962
root 0.107071 33.029613 5.650978 734.511319 5.820401 -718.906804
Spine -12.469096 -10.582799 1.557045
Head 4.509082 -1.108527 1.135083
LeftShoulder 160.448216 143.757889 200.773771
LeftArm 55.504784 -57.170554 -53.939296
LeftForeArm 12.966214 -0.000000 -1.071096
LeftHand 5.810079 -0.000000 9.149501
LeftHandThumb1 -26.253704 0.000000 33.147579
RightShoulder -8.616341 4.790837 -31.090935
RightArm 10.140737 13.926129 41.801899
RightForeArm -18.226732 -0.000000 3.975940
RightHand 5.039324 -0.000000 -3.904884
RightHandThumb1 -24.326973 -0.000000 -32.862282
LeftUpLeg -9.934936 -6.979138 1.372577
LeftLeg 0.450946 -0.000000 -0.000000
LeftFoot -3.832730 3.186845 -16.801718
LeftToeBase -12.070320 -0.000000 0.000000
RightUpLeg -7.129766 -0.972391 -0.803819
RightLeg -0.607265 -0.000000 0.000000
RightFoot -7.414991 -11.606723 12.932525
RightToeBase -9.082504 -0.000000 0.000000
1963
root 0.069191 32.984391 5.612093 734.490663 6.471403 -719.155592
Spine -12.384969 -10.826300 1.907684
Head 4.012206 -1.260174 1.117496
LeftShoulder 160.180834 143.756025 200.497502
LeftArm 55.703414 -57.542091 -54.154224
LeftForeArm 13.128056 -0.000000 -1.198662
LeftHand 5.542775 0.000000 8.959699
LeftHandThumb1 -26.253704 0.000000 33.147579
RightShoulder -8.781488 4.872184 -31.086597
RightArm 10.105839 13.944450 41.353396
RightForeArm -18.168964 0.000000 3.763547
RightHand 4.216928 -0.000000 -3.260081
RightHandThumb1 -24.326973 -0.000000 -32.862282
LeftUpLeg -9.943545 -7.278075 1.758669
LeftLeg 0.252385 -0.000000 -0.000000
LeftFoot -4.306227 3.186334 -16.627686
LeftToeBase -11.706735 -0.000000 0.000000
RightUpLeg -6.798693 -0.800750 -0.464573
RightLeg -1.223065 -0.000000 0.000000
RightFoot -7.683324 -12.059955 13.048884
RightToeBase -8.776833 -0.000000 0.000000
1964
root 0.040501 32.957056 5.574567 734.466748 7.141808 -719.321262
Spine -12.311108 -11.098993 2.171774
Head 3.627876 -1.415519 1.124375
LeftShoulder 159.955877 143.763982 200.256472
LeftArm 55.721212 -57.682114 -54.239510
LeftForeArm 12.990305 -0.000000 -1.240798
LeftHand 5.217968 -0.000000 9.676663
LeftHandThumb1 -26.253704 0.000000 33.147579
RightShoulder -8.900267 4.854101 -31.006028
RightArm 10.097114 14.123629 40.922902
RightForeArm -18.225936 -0.000000 3.432730
RightHand 3.670614 -0.000000 -2.615000
RightHandThumb1 -24.326973 -0.000000 -32.862282
LeftUpLeg -9.961706 -7.698608 2.038106
LeftLeg 0.053663 -0.000000 -0.000000
LeftFoot -4.602873 3.451272 -16.372871
LeftToeBase -11.485675 -0.000000 0.000000
RightUpLeg -6.391044 -0.545530 -0.269211
RightLeg -1.969658 -0.000000 0.000000
RightFoot -7.796521 -12.463946 13.470522
RightToeBase -8.486231 -0.000000 0.000000
